<svg id="Layer_1" data-name="Layer 1" xmlns="http://www.w3.org/2000/svg" viewBox="0 0 64 76.43"><defs><style>.cls-1{fill:#445463;}.cls-2{isolation:isolate;}</style></defs><line class="cls-1" y2="65.23"/><g class="cls-2"><path class="cls-1" d="M17,80.57H22.5v1.37H18.61v1.74H22v1.37H18.61v3.26H17Z" transform="translate(-14.84 -12.1)"/><path class="cls-1" d="M23.52,80.57h1.65v5a1.68,1.68,0,0,0,.21.91,1.09,1.09,0,0,0,.52.5,1.65,1.65,0,0,0,.66.15c1,0,1.55-.5,1.55-1.5V80.57h1.66v5.09A3.22,3.22,0,0,1,29.51,87a2.09,2.09,0,0,1-.68.89,2.77,2.77,0,0,1-1,.46,4.88,4.88,0,0,1-1.23.15,4.16,4.16,0,0,1-1.5-.28,2.43,2.43,0,0,1-1.14-.9,2.64,2.64,0,0,1-.46-1.6Z" transform="translate(-14.84 -12.1)"/><path class="cls-1" d="M30.85,80.57h3.93a2.67,2.67,0,0,1,1.33.3,2.09,2.09,0,0,1,.82.82,2.15,2.15,0,0,1,.27,1,2.29,2.29,0,0,1-.15.82,1.72,1.72,0,0,1-.41.66,1.74,1.74,0,0,1-.63.4,1.11,1.11,0,0,1,.78.62,2.78,2.78,0,0,1,.19,1.1v.32L37,87a2.72,2.72,0,0,0,.1.77.39.39,0,0,0,.28.32v.21H35.54a3.46,3.46,0,0,1-.13-.57l0-.68,0-.69c0-.11,0-.22,0-.32l-.06-.24,0-.06a.59.59,0,0,0-.3-.34,2,2,0,0,0-.8-.12H32.43v3H30.85ZM34.44,84a1.17,1.17,0,0,0,.9-.28,1.26,1.26,0,0,0,.25-.79,1.09,1.09,0,0,0-.25-.7,1.07,1.07,0,0,0-.85-.3H32.43V84Z" transform="translate(-14.84 -12.1)"/><path class="cls-1" d="M38.55,80.57h1.71L43.33,86l0-5.38h1.51v7.74H43.24L40.09,82.8l0,5.51H38.55Z" transform="translate(-14.84 -12.1)"/><path class="cls-1" d="M46.29,80.57h1.63v7.74H46.29Z" transform="translate(-14.84 -12.1)"/><path class="cls-1" d="M51.06,81.94H48.74V80.57H55v1.37H52.69v6.37H51.06Z" transform="translate(-14.84 -12.1)"/><path class="cls-1" d="M55.94,80.57h1.65v5a1.78,1.78,0,0,0,.2.91,1.15,1.15,0,0,0,.53.5,1.58,1.58,0,0,0,.66.15,1.35,1.35,0,0,0,1.55-1.5V80.57h1.66v5.09A3.38,3.38,0,0,1,61.93,87a2.09,2.09,0,0,1-.68.89,2.86,2.86,0,0,1-1,.46,5,5,0,0,1-1.24.15,4.15,4.15,0,0,1-1.49-.28,2.4,2.4,0,0,1-1.15-.9,2.64,2.64,0,0,1-.45-1.6Z" transform="translate(-14.84 -12.1)"/><path class="cls-1" d="M63.26,80.57H67.2a2.7,2.7,0,0,1,1.33.3,2.13,2.13,0,0,1,1.09,1.86,2.29,2.29,0,0,1-.15.82,1.72,1.72,0,0,1-.41.66,1.7,1.7,0,0,1-.64.4,1.15,1.15,0,0,1,.79.62,3,3,0,0,1,.18,1.1v.32l0,.36a2.4,2.4,0,0,0,.1.77.38.38,0,0,0,.28.32v.21H68a2.67,2.67,0,0,1-.13-.57l0-.68,0-.69c0-.11,0-.22,0-.32l-.06-.24,0-.06a.68.68,0,0,0-.3-.34,2,2,0,0,0-.8-.12H64.85v3H63.26ZM66.86,84a1.18,1.18,0,0,0,.9-.28,1.26,1.26,0,0,0,.24-.79.94.94,0,0,0-1.09-1H64.85V84Z" transform="translate(-14.84 -12.1)"/><path class="cls-1" d="M71.05,80.57h5.7v1.37H72.63v1.64h3.78v1.36H72.63v2h4.29v1.37H71.05Z" transform="translate(-14.84 -12.1)"/></g><polyline class="cls-1" points="0 65.23 9.23 65.23 17.9 42.85 0 0"/><polygon class="cls-1" points="7.31 0.17 23.82 38.76 53.63 38.76 64 65.23 64 0.23 7.31 0.17"/><polyline class="cls-1" points="24 45.2 16.54 65.68 57.96 65.68 50.1 45.2"/></svg>