<svg aria-hidden="true" style="position: absolute; width: 0; height: 0; overflow: hidden;" version="1.1" xmlns="http://www.w3.org/2000/svg" xmlns:xlink="http://www.w3.org/1999/xlink">
<defs>
<symbol id="icon-icons8-plus" viewBox="0 0 32 32">
<path d="M14.667 2.667v12h-12v2.667h12v12h2.667v-12h12v-2.667h-12v-12z"></path>
</symbol>
<symbol id="icon-arrow-left-long-solid" viewBox="0 0 32 32">
<path d="M0.586 14.588l8-8c0.781-0.781 2.047-0.781 2.828 0s0.781 2.047 0 2.828l-4.583 4.584h23.169c1.106 0 2 0.894 2 2s-0.894 2-2 2h-23.169l4.586 4.586c0.781 0.781 0.781 2.047 0 2.828s-2.046 0.782-2.828 0l-8-8c-0.785-0.783-0.785-2.046-0.003-2.827z"></path>
</symbol>
<symbol id="icon-arrow-left-solid" viewBox="0 0 28 32">
<path d="M27.944 16c0 1.106-0.837 2-1.944 2h-19.169l6.588 6.587c0.781 0.781 0.781 2.047 0 2.828-0.394 0.391-0.906 0.584-1.419 0.584s-1.024-0.195-1.414-0.586l-10-10c-0.781-0.781-0.781-2.047 0-2.828l10-10c0.781-0.781 2.047-0.781 2.828 0s0.781 2.047 0 2.828l-6.583 6.586h19.169c1.106 0 1.944 0.894 1.944 2z"></path>
</symbol>
<symbol id="icon-arrow-right-long-solid" viewBox="0 0 32 32">
<path d="M31.413 17.413l-8 8c-0.782 0.782-2.047 0.781-2.828 0s-0.781-2.047 0-2.828l4.591-4.584h-23.175c-1.106 0-2-0.894-2-2.056s0.894-1.944 2-1.944h23.175l-4.586-4.586c-0.781-0.781-0.781-2.047 0-2.828s2.047-0.781 2.828 0l8 8c0.777 0.783 0.777 2.046-0.004 2.827z"></path>
</symbol>
<symbol id="icon-arrow-right-solid" viewBox="0 0 28 32">
<path d="M27.413 17.413l-10 10c-0.387 0.394-0.9 0.587-1.413 0.587s-1.024-0.195-1.414-0.586c-0.781-0.781-0.781-2.047 0-2.828l6.589-6.586h-19.175c-1.104 0-2-0.894-2-2s0.896-2 2-2h19.175l-6.588-6.588c-0.781-0.781-0.781-2.047 0-2.828s2.047-0.781 2.828 0l10 10c0.778 0.784 0.778 2.047-0.003 2.828z"></path>
</symbol>
<symbol id="icon-bag-shopping-solid" viewBox="0 0 28 32">
<path d="M7 7c0-3.866 3.131-7 7-7s7 3.134 7 7v3h4c1.656 0 3 1.344 3 3v13c0 3.313-2.688 6-6 6h-16c-3.314 0-6-2.688-6-6v-13c0-1.656 1.343-3 3-3h4v-3zM10 10h8v-3c0-2.209-1.794-4-4-4s-4 1.791-4 4v3zM8.5 16c0.831 0 1.5-0.669 1.5-1.5s-0.669-1.5-1.5-1.5c-0.831 0-1.5 0.669-1.5 1.5s0.669 1.5 1.5 1.5zM19.5 13c-0.831 0-1.5 0.669-1.5 1.5s0.669 1.5 1.5 1.5c0.831 0 1.5-0.669 1.5-1.5s-0.669-1.5-1.5-1.5z"></path>
</symbol>
<symbol id="icon-eye-solid" viewBox="0 0 36 32">
<path d="M17.475 10.025c0.175-0.019 0.35-0.025 0.525-0.025 3.313 0 6 2.631 6 6 0 3.313-2.688 6-6 6-3.369 0-6-2.688-6-6 0-0.175 0.006-0.35 0.025-0.525 0.581 0.281 1.256 0.525 1.975 0.525 2.206 0 4-1.794 4-4 0-0.719-0.244-1.394-0.525-1.975zM30.038 7.037c2.925 2.713 4.881 5.906 5.806 8.194 0.206 0.494 0.206 1.044 0 1.538-0.925 2.231-2.881 5.425-5.806 8.194-2.944 2.738-6.988 5.038-12.038 5.038s-9.094-2.3-12.036-5.038c-2.925-2.769-4.88-5.962-5.81-8.194-0.205-0.494-0.205-1.044 0-1.537 0.93-2.287 2.885-5.481 5.81-8.194 2.943-2.735 6.986-5.037 12.036-5.037s9.094 2.303 12.038 5.037v0zM18 7c-4.969 0-9 4.031-9 9s4.031 9 9 9c4.969 0 9-4.031 9-9s-4.031-9-9-9z"></path>
</symbol>
<symbol id="icon-menu" viewBox="0 0 32 32">
<path d="M30.368 26.614h-28.694c-0.311 0-0.563-0.252-0.563-0.563s0.252-0.563 0.563-0.563h28.694c0.311 0 0.563 0.252 0.563 0.563s-0.252 0.563-0.563 0.563zM30.368 16.546h-28.694c-0.311 0-0.563-0.252-0.563-0.563s0.252-0.563 0.563-0.563h28.694c0.311 0 0.563 0.252 0.563 0.563s-0.252 0.563-0.563 0.563zM30.368 6.478h-28.694c-0.311 0-0.563-0.252-0.563-0.563s0.252-0.563 0.563-0.563h28.694c0.311 0 0.563 0.252 0.563 0.563s-0.252 0.563-0.563 0.563z"></path>
</symbol>
<symbol id="icon-minus" viewBox="0 0 32 32">
<path d="M25.333 17.333h-18.667c-0.736 0-1.333-0.597-1.333-1.333s0.597-1.333 1.333-1.333v0h18.667c0.736 0 1.333 0.597 1.333 1.333s-0.597 1.333-1.333 1.333v0z"></path>
</symbol>
<symbol id="icon-search" viewBox="0 0 32 32">
<path d="M18.985 19.882c-2.904 2.536-7.247 3.335-10.9 1.841-4.405-1.801-7.211-6.867-6.368-11.581 0.843-4.717 5.229-8.532 10.133-8.641 0.090-0.002 0.181-0.002 0.271-0.002 4.82 0.046 9.364 3.765 10.256 8.578 0.599 3.226-0.433 6.711-2.672 9.108l8.697 8.455c0.186 0.197 0.154 0.262 0.151 0.372-0.011 0.381-0.527 0.632-0.849 0.345l-8.719-8.476zM11.991 2.5c-4.302 0.041-8.339 3.293-9.233 7.528-0.659 3.117 0.379 6.542 2.66 8.768 2.619 2.557 6.766 3.416 10.224 2.001 4.001-1.636 6.546-6.258 5.752-10.537-0.787-4.242-4.715-7.66-9.157-7.759-0.061-0.001-0.133-0.002-0.205-0.002-0.014 0-0.029 0-0.043 0h0.002z"></path>
</symbol>
<symbol id="icon-star-regular" viewBox="0 0 36 32">
<path d="M17.994 0c0.575 0 1.1 0.328 1.35 0.845l4.288 8.83 9.581 1.419c0.563 0.081 1.025 0.475 1.206 1.012 0.175 0.544 0.031 1.137-0.369 1.531l-6.95 6.887 1.644 9.719c0.094 0.563-0.137 1.137-0.606 1.469-0.462 0.331-1.131 0.375-1.581 0.106l-8.563-4.575-8.613 4.575c-0.45 0.269-1.063 0.225-1.531-0.106-0.463-0.331-0.694-0.906-0.656-1.469l1.694-9.719-6.943-6.887c-0.404-0.394-0.547-0.988-0.369-1.531 0.177-0.537 0.644-0.931 1.206-1.012l9.576-1.419 4.287-8.83c0.256-0.517 0.775-0.845 1.35-0.845v0zM17.994 4.934l-3.281 6.766c-0.219 0.444-0.644 0.756-1.131 0.831l-7.395 1.088 5.37 5.319c0.344 0.344 0.5 0.837 0.419 1.319l-1.262 7.475 6.575-3.512c0.444-0.238 0.975-0.238 1.413 0l6.575 3.512-1.262-7.475c-0.081-0.481 0.081-0.975 0.425-1.319l5.369-5.319-7.394-1.088c-0.494-0.075-0.919-0.387-1.131-0.831l-3.288-6.766z"></path>
</symbol>
<symbol id="icon-facebook-square" viewBox="0 0 28 32">
<path d="M25 2h-22c-1.657 0-3 1.343-3 3v0 22c0 1.657 1.343 3 3 3v0h8.578v-9.519h-3.938v-4.481h3.938v-3.415c0-3.884 2.313-6.030 5.854-6.030 1.696 0 3.47 0.303 3.47 0.303v3.813h-1.954c-1.926 0-2.526 1.195-2.526 2.421v2.909h4.299l-0.688 4.481h-3.611v9.519h8.578c1.657 0 3-1.343 3-3v0-22c0-1.657-1.343-3-3-3v0z"></path>
</symbol>
<symbol id="icon-instagram-square" viewBox="0 0 28 32">
<path d="M14 12.666c-1.841 0.001-3.332 1.493-3.332 3.334s1.493 3.334 3.334 3.334 3.334-1.493 3.334-3.334v0c-0.001-1.841-1.494-3.333-3.335-3.334h-0zM21.794 10.104c-0.351-0.872-1.029-1.55-1.878-1.893l-0.023-0.008c-1.313-0.518-4.438-0.402-5.894-0.402s-4.578-0.121-5.894 0.402c-0.872 0.351-1.55 1.029-1.893 1.878l-0.008 0.023c-0.518 1.313-0.402 4.441-0.402 5.896s-0.116 4.579 0.404 5.896c0.351 0.872 1.029 1.55 1.878 1.893l0.023 0.008c1.313 0.518 4.438 0.402 5.894 0.402s4.577 0.121 5.894-0.402c0.872-0.351 1.55-1.029 1.893-1.878l0.008-0.023c0.522-1.313 0.402-4.441 0.402-5.896s0.12-4.579-0.402-5.896zM14 21.125c-2.83 0-5.125-2.295-5.125-5.125s2.295-5.125 5.125-5.125c2.83 0 5.125 2.295 5.125 5.125v0c0 0.002 0 0.004 0 0.006 0 2.827-2.292 5.119-5.119 5.119-0.002 0-0.004 0-0.007 0h0zM19.336 11.856c-0 0-0 0-0.001 0-0.661 0-1.196-0.536-1.196-1.196s0.536-1.196 1.196-1.196c0.661 0 1.196 0.536 1.196 1.196v0c0 0.002 0 0.003 0 0.005 0 0.659-0.534 1.193-1.193 1.194h-0zM25 2h-22c-1.657 0-3 1.343-3 3v0 22c0 1.657 1.343 3 3 3v0h22c1.657 0 3-1.343 3-3v0-22c0-1.657-1.343-3-3-3v0zM23.93 20.125c-0.081 1.602-0.446 3.021-1.616 4.188s-2.587 1.539-4.188 1.616c-1.651 0.093-6.599 0.093-8.25 0-1.602-0.081-3.016-0.447-4.188-1.616s-1.539-2.589-1.616-4.188c-0.093-1.651-0.093-6.601 0-8.25 0.081-1.602 0.442-3.021 1.616-4.188s2.592-1.535 4.188-1.611c1.651-0.093 6.599-0.093 8.25 0 1.602 0.081 3.021 0.447 4.188 1.616s1.539 2.589 1.616 4.191c0.093 1.645 0.093 6.59 0 8.242z"></path>
</symbol>
<symbol id="icon-twitter-square" viewBox="0 0 28 32">
<path d="M25 2h-22c-1.656 0-3 1.344-3 3v22c0 1.656 1.344 3 3 3h22c1.656 0 3-1.344 3-3v-22c0-1.656-1.344-3-3-3zM21.944 11.925c0.012 0.175 0.012 0.356 0.012 0.531 0 5.419-4.125 11.662-11.662 11.662-2.325 0-4.481-0.675-6.294-1.837 0.331 0.038 0.65 0.050 0.987 0.050 1.919 0 3.681-0.65 5.088-1.75-1.8-0.038-3.313-1.219-3.831-2.844 0.631 0.094 1.2 0.094 1.85-0.075-1.875-0.381-3.281-2.031-3.281-4.025v-0.050c0.544 0.306 1.181 0.494 1.85 0.519-1.107-0.744-1.825-1.991-1.825-3.406 0-0.002 0-0.005 0-0.007v0c0-0.762 0.2-1.463 0.556-2.069 2.019 2.487 5.050 4.112 8.45 4.287-0.581-2.781 1.5-5.037 4-5.037 1.181 0 2.244 0.494 2.994 1.294 0.925-0.175 1.813-0.519 2.6-0.988-0.306 0.95-0.95 1.75-1.8 2.256 0.825-0.088 1.625-0.319 2.363-0.637-0.556 0.819-1.256 1.544-2.056 2.125z"></path>
</symbol>
<symbol id="icon-envelope" viewBox="0 0 20 20">
<path d="M18 2c1.105 0 2 0.895 2 2v0 12c0 1.105-0.895 2-2 2v0h-16c-1.105 0-2-0.895-2-2v0-12c0-1.1 0.9-2 2-2h16zM13.63 11.1l6.37 4.9v-2l-5.12-3.9 5.12-4.1v-2l-10 8-10-8v2l5.12 4.1-5.12 3.9v2l6.37-4.9 3.63 2.9 3.63-2.9z"></path>
</symbol>
<symbol id="icon-phone" viewBox="0 0 22 28">
<path d="M22 19.375c0 0.562-0.25 1.656-0.484 2.172-0.328 0.766-1.203 1.266-1.906 1.656-0.922 0.5-1.859 0.797-2.906 0.797-1.453 0-2.766-0.594-4.094-1.078-0.953-0.344-1.875-0.766-2.734-1.297-2.656-1.641-5.859-4.844-7.5-7.5-0.531-0.859-0.953-1.781-1.297-2.734-0.484-1.328-1.078-2.641-1.078-4.094 0-1.047 0.297-1.984 0.797-2.906 0.391-0.703 0.891-1.578 1.656-1.906 0.516-0.234 1.609-0.484 2.172-0.484 0.109 0 0.219 0 0.328 0.047 0.328 0.109 0.672 0.875 0.828 1.188 0.5 0.891 0.984 1.797 1.5 2.672 0.25 0.406 0.719 0.906 0.719 1.391 0 0.953-2.828 2.344-2.828 3.187 0 0.422 0.391 0.969 0.609 1.344 1.578 2.844 3.547 4.813 6.391 6.391 0.375 0.219 0.922 0.609 1.344 0.609 0.844 0 2.234-2.828 3.187-2.828 0.484 0 0.984 0.469 1.391 0.719 0.875 0.516 1.781 1 2.672 1.5 0.313 0.156 1.078 0.5 1.188 0.828 0.047 0.109 0.047 0.219 0.047 0.328z"></path>
</symbol>
<symbol id="icon-location" viewBox="0 0 32 32">
<path d="M16 0c-5.523 0-10 4.477-10 10 0 10 10 22 10 22s10-12 10-22c0-5.523-4.477-10-10-10zM16 16c-3.314 0-6-2.686-6-6s2.686-6 6-6 6 2.686 6 6-2.686 6-6 6z"></path>
</symbol>
</defs>
</svg>
