<?xml version="1.0" encoding="utf-8"?>
<!-- Generator: Adobe Illustrator 26.0.1, SVG Export Plug-In . SVG Version: 6.00 Build 0)  -->
<svg version="1.1" id="Layer_1" xmlns="http://www.w3.org/2000/svg" xmlns:xlink="http://www.w3.org/1999/xlink" x="0px" y="0px"
	 viewBox="0 0 122.1 98" style="enable-background:new 0 0 122.1 98;" xml:space="preserve">
<style type="text/css">
	.st0{font-family:'Catamaran-ExtraBold';}
	.st1{font-size:10.769px;}
	.st2{fill:#FFFFFF;}
</style>
<text transform="matrix(1 0 0 1 29.4559 90.0748)" class="st0 st1">FURNITURE</text>
<text transform="matrix(1 0 0 1 30.2295 90.0746)" class="st0 st1">FURNITURE</text>
<rect x="24.2" y="16.1" class="st2" width="66" height="65"/>
<polygon points="28.2,15.9 28.2,81.1 37.5,81.1 46.1,58.7 "/>
<polygon points="35.5,16 52.1,54.6 81.9,54.6 92.2,81.1 92.2,16.1 "/>
<polyline points="52.2,60.6 44.8,81.1 86.2,81.1 78.4,60.6 "/>
<polyline class="st2" points="44.2,81.9 54.9,67.2 76.2,67.2 86.8,81.9 "/>
<rect x="41.3" y="56.5" transform="matrix(0.9325 0.3612 -0.3612 0.9325 30.8771 -9.8838)" class="st2" width="1.2" height="42.3"/>
<rect x="72.2" y="69.7" transform="matrix(0.9194 -0.3934 0.3934 0.9194 -27.0388 35.3683)" class="st2" width="1.2" height="28"/>
</svg>
