<?xml version="1.0" encoding="utf-8"?>
<!-- Generator: Adobe Illustrator 26.0.1, SVG Export Plug-In . SVG Version: 6.00 Build 0)  -->
<svg version="1.1" id="Layer_1" xmlns="http://www.w3.org/2000/svg" xmlns:xlink="http://www.w3.org/1999/xlink" x="0px" y="0px"
	 viewBox="0 0 206 205" style="enable-background:new 0 0 206 205;" xml:space="preserve">
<style type="text/css">
	.st0{fill:#FFFFFF;}
	.st1{fill:none;}
	.st2{font-family:'MyriadPro-Regular';}
	.st3{font-size:12px;}
</style>
<rect x="70.1" y="69.9" class="st0" width="65.9" height="65.4"/>
<polygon points="74.6,69.7 74.6,135 83.8,135 92.5,112.6 "/>
<polygon points="82.4,69.9 98.7,108.4 128.1,108.4 138.3,134.9 138.3,69.9 "/>
<polyline points="98.3,115.1 90.8,135 132.3,135 124.4,115.1 "/>
<rect x="77.9" y="137.4" class="st1" width="57.2" height="8.7"/>
<text transform="matrix(1 0 0 1 78.0368 145.9158)" class="st2 st3">FURNITURE</text>
<polyline points="22.3,76.7 16.3,73.2 16.3,66.2 22.4,62.7 "/>
<polyline class="st0" points="101.5,93 106.5,84.3 116.6,84.3 121.6,93 "/>
<polyline points="40,62.7 31.1,62.7 31.1,50.9 40,50.9 "/>
<polyline class="st0" points="111.2,86.5 111.9,86.5 111.9,104.3 111.2,104.3 "/>
<polyline class="st0" points="106.5,108.7 109,104.3 114.1,104.3 116.6,108.7 "/>
</svg>
