<svg xmlns="http://www.w3.org/2000/svg" viewBox="0 0 50 50"><defs><style>.cls-1{fill:#445463;}.cls-2{isolation:isolate;}</style></defs><g id="Layer_2" data-name="Layer 2"><g id="Layer_1-2" data-name="Layer 1"><line class="cls-1" y2="42.68"/><g class="cls-2"><path class="cls-1" d="M1.68,44.79H6v.9H3v1.14H5.61v.89H3v2.14H1.68Z"/><path class="cls-1" d="M6.79,44.79H8.07v3.29a1,1,0,0,0,.16.6.84.84,0,0,0,.42.33,1.52,1.52,0,0,0,.51.09c.81,0,1.21-.32,1.21-1V44.79h1.3v3.34a1.8,1.8,0,0,1-.21.89,1.45,1.45,0,0,1-.53.59,2.36,2.36,0,0,1-.76.29,4.31,4.31,0,0,1-1,.1A3.77,3.77,0,0,1,8,49.82a1.94,1.94,0,0,1-.89-.59,1.52,1.52,0,0,1-.35-1Z"/><path class="cls-1" d="M12.51,44.79h3.07a2.47,2.47,0,0,1,1,.2,1.5,1.5,0,0,1,.64.54,1.21,1.21,0,0,1,.21.68,1.24,1.24,0,0,1-.12.53,1.06,1.06,0,0,1-.32.43,1.22,1.22,0,0,1-.49.26.91.91,0,0,1,.61.41,1.59,1.59,0,0,1,.15.72v.21l0,.24a1.43,1.43,0,0,0,.07.5.29.29,0,0,0,.22.21v.14H16.18a1.79,1.79,0,0,1-.11-.37L16,49l0-.45a1.41,1.41,0,0,0,0-.21s0-.08,0-.16l0,0a.47.47,0,0,0-.24-.22,1.85,1.85,0,0,0-.62-.08H13.74v2H12.51ZM15.32,47a1,1,0,0,0,.7-.19.75.75,0,0,0,.19-.52.7.7,0,0,0-.19-.46,1,1,0,0,0-.67-.19H13.74V47Z"/><path class="cls-1" d="M18.52,44.79h1.34l2.4,3.53,0-3.53h1.17v5.07H22.19l-2.46-3.61,0,3.61H18.52Z"/><path class="cls-1" d="M24.57,44.79h1.27v5.07H24.57Z"/><path class="cls-1" d="M28.3,45.69H26.48v-.9H31.4v.9H29.57v4.17H28.3Z"/><path class="cls-1" d="M32.11,44.79H33.4v3.29a1,1,0,0,0,.16.6A.82.82,0,0,0,34,49a1.61,1.61,0,0,0,.51.09c.81,0,1.22-.32,1.22-1V44.79H37v3.34a1.92,1.92,0,0,1-.2.89,1.45,1.45,0,0,1-.53.59,2.42,2.42,0,0,1-.77.29,4.22,4.22,0,0,1-1,.1,3.77,3.77,0,0,1-1.17-.18,1.84,1.84,0,0,1-.89-.59,1.52,1.52,0,0,1-.36-1Z"/><path class="cls-1" d="M37.83,44.79H40.9A2.49,2.49,0,0,1,42,45a1.56,1.56,0,0,1,.64.54,1.21,1.21,0,0,1,.21.68,1.24,1.24,0,0,1-.12.53,1.06,1.06,0,0,1-.32.43,1.26,1.26,0,0,1-.5.26.93.93,0,0,1,.62.41,1.74,1.74,0,0,1,.14.72v.21l0,.24a1.41,1.41,0,0,0,.08.5.28.28,0,0,0,.22.21v.14H41.5a1.81,1.81,0,0,1-.1-.37l0-.45,0-.45a1.36,1.36,0,0,0,0-.21,1.17,1.17,0,0,0,0-.16l0,0c0-.08-.1-.15-.23-.22a1.89,1.89,0,0,0-.62-.08H39.07v2H37.83ZM40.64,47a1,1,0,0,0,.7-.19.72.72,0,0,0,.2-.52.66.66,0,0,0-.2-.46,1,1,0,0,0-.66-.19H39.07V47Z"/><path class="cls-1" d="M43.92,44.79h4.45v.9H45.15v1.08h3v.88h-3V49H48.5v.9H43.92Z"/></g><polyline class="cls-1" points="0 42.67 7.21 42.67 13.98 28.03 0 0"/><polygon class="cls-1" points="5.71 0.11 18.61 25.36 41.9 25.36 50 42.67 50 0.15 5.71 0.11"/><polyline class="cls-1" points="18.75 29.57 12.92 42.97 45.28 42.97 39.14 29.57"/></g></g></svg>