<!-- Generated by IcoMoon.io -->
<svg version="1.1" xmlns="http://www.w3.org/2000/svg" width="28" height="32" viewBox="0 0 28 32">
<title>bag-shopping-solid</title>
<path d="M7 7c0-3.866 3.131-7 7-7s7 3.134 7 7v3h4c1.656 0 3 1.344 3 3v13c0 3.313-2.688 6-6 6h-16c-3.314 0-6-2.688-6-6v-13c0-1.656 1.343-3 3-3h4v-3zM10 10h8v-3c0-2.209-1.794-4-4-4s-4 1.791-4 4v3zM8.5 16c0.831 0 1.5-0.669 1.5-1.5s-0.669-1.5-1.5-1.5c-0.831 0-1.5 0.669-1.5 1.5s0.669 1.5 1.5 1.5zM19.5 13c-0.831 0-1.5 0.669-1.5 1.5s0.669 1.5 1.5 1.5c0.831 0 1.5-0.669 1.5-1.5s-0.669-1.5-1.5-1.5z"></path>
</svg>
