<!-- Generated by IcoMoon.io -->
<svg version="1.1" xmlns="http://www.w3.org/2000/svg" width="36" height="32" viewBox="0 0 36 32">
<title>eye-solid</title>
<path d="M17.475 10.025c0.175-0.019 0.35-0.025 0.525-0.025 3.313 0 6 2.631 6 6 0 3.313-2.688 6-6 6-3.369 0-6-2.688-6-6 0-0.175 0.006-0.35 0.025-0.525 0.581 0.281 1.256 0.525 1.975 0.525 2.206 0 4-1.794 4-4 0-0.719-0.244-1.394-0.525-1.975zM30.038 7.037c2.925 2.713 4.881 5.906 5.806 8.194 0.206 0.494 0.206 1.044 0 1.538-0.925 2.231-2.881 5.425-5.806 8.194-2.944 2.738-6.988 5.038-12.038 5.038s-9.094-2.3-12.036-5.038c-2.925-2.769-4.88-5.962-5.81-8.194-0.205-0.494-0.205-1.044 0-1.537 0.93-2.287 2.885-5.481 5.81-8.194 2.943-2.735 6.986-5.037 12.036-5.037s9.094 2.303 12.038 5.037v0zM18 7c-4.969 0-9 4.031-9 9s4.031 9 9 9c4.969 0 9-4.031 9-9s-4.031-9-9-9z"></path>
</svg>
