<!-- Generated by IcoMoon.io -->
<svg version="1.1" xmlns="http://www.w3.org/2000/svg" width="32" height="32" viewBox="0 0 32 32">
<title>menu</title>
<path d="M30.368 26.614h-28.694c-0.311 0-0.563-0.252-0.563-0.563s0.252-0.563 0.563-0.563h28.694c0.311 0 0.563 0.252 0.563 0.563s-0.252 0.563-0.563 0.563zM30.368 16.546h-28.694c-0.311 0-0.563-0.252-0.563-0.563s0.252-0.563 0.563-0.563h28.694c0.311 0 0.563 0.252 0.563 0.563s-0.252 0.563-0.563 0.563zM30.368 6.478h-28.694c-0.311 0-0.563-0.252-0.563-0.563s0.252-0.563 0.563-0.563h28.694c0.311 0 0.563 0.252 0.563 0.563s-0.252 0.563-0.563 0.563z"></path>
</svg>
