<!-- Generated by IcoMoon.io -->
<svg version="1.1" xmlns="http://www.w3.org/2000/svg" width="36" height="32" viewBox="0 0 36 32">
<title>star-regular</title>
<path d="M17.994 0c0.575 0 1.1 0.328 1.35 0.845l4.288 8.83 9.581 1.419c0.563 0.081 1.025 0.475 1.206 1.012 0.175 0.544 0.031 1.137-0.369 1.531l-6.95 6.887 1.644 9.719c0.094 0.563-0.137 1.137-0.606 1.469-0.462 0.331-1.131 0.375-1.581 0.106l-8.563-4.575-8.613 4.575c-0.45 0.269-1.063 0.225-1.531-0.106-0.463-0.331-0.694-0.906-0.656-1.469l1.694-9.719-6.943-6.887c-0.404-0.394-0.547-0.988-0.369-1.531 0.177-0.537 0.644-0.931 1.206-1.012l9.576-1.419 4.287-8.83c0.256-0.517 0.775-0.845 1.35-0.845v0zM17.994 4.934l-3.281 6.766c-0.219 0.444-0.644 0.756-1.131 0.831l-7.395 1.088 5.37 5.319c0.344 0.344 0.5 0.837 0.419 1.319l-1.262 7.475 6.575-3.512c0.444-0.238 0.975-0.238 1.413 0l6.575 3.512-1.262-7.475c-0.081-0.481 0.081-0.975 0.425-1.319l5.369-5.319-7.394-1.088c-0.494-0.075-0.919-0.387-1.131-0.831l-3.288-6.766z"></path>
</svg>
